HIERARCHY
ROOT root
{
	OFFSET 0.000000 0.000000 0.000000
	CHANNELS 6 Xposition Yposition Zposition Zrotation Yrotation Xrotation
	JOINT lhip
	{
		OFFSET 0.058581 -0.082280 -0.017664
		CHANNELS 3 Zrotation Yrotation Xrotation
		JOINT lknee
		{
			OFFSET 0.043451 -0.386469 0.008037
			CHANNELS 3 Zrotation Yrotation Xrotation
			JOINT lankle
			{
				OFFSET -0.014790 -0.426874 -0.037428
				CHANNELS 3 Zrotation Yrotation Xrotation
				JOINT ltoe
				{
					OFFSET 0.041054 -0.060286 0.122042
					CHANNELS 3 Zrotation Yrotation Xrotation
					End Site
					{
						OFFSET 0.000000 0.000000 0.000000
					}
				}
			}
		}
	}
	JOINT rhip
	{
		OFFSET -0.060310 -0.090513 -0.013543
		CHANNELS 3 Zrotation Yrotation Xrotation
		JOINT rknee
		{
			OFFSET -0.043257 -0.383688 -0.004843
			CHANNELS 3 Zrotation Yrotation Xrotation
			JOINT rankle
			{
				OFFSET 0.019056 -0.420046 -0.034562
				CHANNELS 3 Zrotation Yrotation Xrotation
				JOINT rtoe
				{
					OFFSET -0.034840 -0.062106 0.130323
					CHANNELS 3 Zrotation Yrotation Xrotation
					End Site
					{
						OFFSET 0.000000 0.000000 0.000000
					}
				}
			}
		}
	}
	JOINT lowerback
	{
		OFFSET 0.004439 0.124404 -0.038385
		CHANNELS 3 Zrotation Yrotation Xrotation
		JOINT upperback
		{
			OFFSET 0.004488 0.137956 0.026820
			CHANNELS 3 Zrotation Yrotation Xrotation
			JOINT chest
			{
				OFFSET -0.002265 0.056032 0.002855
				CHANNELS 3 Zrotation Yrotation Xrotation
				JOINT lowerneck
				{
					OFFSET -0.013390 0.211636 -0.033468
					CHANNELS 3 Zrotation Yrotation Xrotation
					JOINT upperneck
					{
						OFFSET 0.010113 0.088937 0.050410
						CHANNELS 3 Zrotation Yrotation Xrotation
						End Site
						{
							OFFSET 0.000000 0.000000 0.000000
						}
					}
				}
				JOINT lclavicle
				{
					OFFSET 0.071702 0.114000 -0.018898
					CHANNELS 3 Zrotation Yrotation Xrotation
					JOINT lshoulder
					{
						OFFSET 0.122921 0.045205 -0.019046
						CHANNELS 3 Zrotation Yrotation Xrotation
						JOINT lelbow
						{
							OFFSET 0.255332 -0.015649 -0.022946
							CHANNELS 3 Zrotation Yrotation Xrotation
							JOINT lwrist
							{
								OFFSET 0.265709 0.012698 -0.007375
								CHANNELS 3 Zrotation Yrotation Xrotation
								End Site
								{
									OFFSET 0.000000 0.000000 0.000000
								}
							}
						}
					}
				}
				JOINT rclavicle
				{
					OFFSET -0.082954 0.112472 -0.023707
					CHANNELS 3 Zrotation Yrotation Xrotation
					JOINT rshoulder
					{
						OFFSET -0.113228 0.046853 -0.008472
						CHANNELS 3 Zrotation Yrotation Xrotation
						JOINT relbow
						{
							OFFSET -0.260127 -0.014369 -0.031269
							CHANNELS 3 Zrotation Yrotation Xrotation
							JOINT rwrist
							{
								OFFSET -0.269108 0.006794 -0.006027
								CHANNELS 3 Zrotation Yrotation Xrotation
								End Site
								{
									OFFSET 0.000000 0.000000 0.000000
								}
							}
						}
					}
				}
			}
		}
	}
}
MOTION
Frames: 13
Frame Time: 0.033333
0.628846 0.176747 1.006803 -35.491367 1.034636 83.698634 2.298016 5.743193 7.453459 -3.431128 -7.942856 3.896747 3.214297 7.186451 -11.748726 0.000000 -0.000000 0.000000 -3.581584 -10.536023 -12.520581 -2.473946 -25.889174 31.084631 2.752551 -18.087657 -8.668740 0.000000 -0.000000 0.000000 -0.328095 -2.176322 19.179741 1.742030 -1.328561 -1.233797 0.850461 -2.628810 4.005294 3.298924 -3.998228 11.745496 -1.607969 -5.627633 19.227446 -26.252970 5.136495 3.469650 -55.414924 -9.466616 5.833634 9.146169 -31.647932 3.454507 -3.138122 -3.410305 -7.335260 27.254887 -1.607427 1.329259 55.588688 5.057690 10.224986 -19.701855 31.106349 -14.520614 1.898758 4.616924 -5.947518 
0.619016 0.175052 1.004954 -38.507166 0.924994 84.524117 2.544866 6.368531 7.333650 -3.352688 -6.296538 3.919268 2.847805 7.801768 -12.451769 0.000000 -0.000000 0.000000 -1.866771 -11.536091 -10.226161 -1.018443 -25.907761 25.614643 2.097512 -16.808592 -11.513040 0.000000 -0.000000 0.000000 -0.024694 -1.483852 18.522351 1.318679 -1.350652 -1.282177 0.686104 -2.269898 3.867669 3.358437 -3.886806 11.361467 -1.181564 -6.051977 18.977590 -26.279073 5.068988 3.575962 -55.606733 -9.216815 5.469136 9.647832 -30.865788 3.376109 -3.136155 -3.434214 -6.674867 27.142780 -1.409640 1.642894 55.999825 4.674060 9.727055 -17.773201 29.051276 -12.812547 2.663236 4.314592 -6.511675 
0.610587 0.174490 1.004266 -42.140739 0.722757 85.404163 2.069134 6.368425 6.768915 -2.731937 -4.536008 4.654340 2.948050 9.309499 -13.181553 0.000000 -0.000000 0.000000 -0.418619 -10.899263 -9.295078 -0.254018 -23.407796 21.730772 1.563683 -15.655111 -11.730628 0.000000 -0.000000 0.000000 0.103038 -1.065465 18.039491 0.980356 -0.818162 -1.447762 0.489048 -1.772872 3.848399 3.275323 -3.980825 10.408155 -1.244629 -6.215622 19.421861 -26.685010 5.368153 2.992390 -55.989566 -9.198393 5.569754 10.013447 -29.537321 2.500825 -2.864235 -3.282761 -6.486384 27.084642 -1.048670 1.780180 56.335748 4.484027 10.117450 -16.533368 26.031913 -11.967879 2.637938 4.177916 -5.948749 
0.601370 0.173491 1.005177 -45.900029 0.889639 85.930303 1.840469 6.418752 6.314834 -1.941056 -2.909000 5.906700 2.943507 11.186106 -13.489918 0.000000 -0.000000 0.000000 0.600514 -9.850727 -10.178724 -0.242451 -21.168144 22.370421 1.825431 -14.692669 -11.399349 0.000000 -0.000000 0.000000 0.281011 -1.119294 17.809416 0.817950 -0.099961 -1.534684 0.306273 -1.226744 3.970775 3.307922 -3.942503 9.897175 -1.266329 -6.034262 19.350957 -27.068824 5.586961 2.457529 -56.643970 -9.218417 5.797559 10.895656 -27.793392 1.633736 -2.974674 -2.809863 -5.906923 27.108585 -0.870048 1.955487 56.394865 4.875366 10.391018 -15.307439 23.054744 -11.519374 3.065740 3.835257 -5.909244 
0.590455 0.171968 1.006215 -49.181622 1.389500 85.701954 2.233973 6.401259 6.589564 -1.362508 -1.132091 7.696030 3.052865 12.666531 -14.265243 0.000000 -0.000000 0.000000 1.881560 -8.697538 -9.261761 0.043502 -19.705229 21.652049 1.347004 -13.828463 -11.747359 0.000000 -0.000000 0.000000 0.542172 -1.217905 17.983788 0.916330 0.204942 -1.327499 0.385242 -1.051910 4.132819 3.150151 -3.752838 9.621213 -1.069481 -5.567000 18.939152 -27.135234 5.411673 2.723288 -57.310636 -9.177613 5.746887 10.676678 -27.164240 0.398569 -3.426349 -2.996470 -7.599345 26.682587 -0.473361 2.181389 56.446284 5.140642 10.292203 -14.281838 20.701777 -10.990218 4.247465 3.261987 -6.439834 
0.578373 0.170126 1.004495 -51.366385 1.207245 85.424859 2.124241 6.521507 6.117742 -0.926842 -0.216384 10.866195 2.725208 13.752561 -15.131902 0.000000 -0.000000 0.000000 2.310778 -8.294047 -8.472626 0.175826 -18.307868 21.740310 1.021408 -13.336676 -12.637728 0.000000 -0.000000 0.000000 -0.031883 -1.181652 17.924003 1.179676 -0.343256 -1.195949 0.626599 -1.265523 4.273220 3.174706 -3.559879 9.961901 -1.086061 -4.924208 18.820791 -26.678099 5.032704 3.074620 -58.196776 -8.908735 5.913835 10.708497 -26.321795 0.685718 -3.430258 -2.891106 -8.313221 26.431382 -0.244651 2.430787 56.501163 5.193718 10.088438 -13.927411 19.308509 -11.127088 4.042939 2.950056 -7.482737 
0.565576 0.168821 1.002591 -53.280731 1.239276 85.178445 2.458876 6.287916 5.015235 -0.601650 0.822545 15.275664 2.399610 14.242269 -15.379210 0.000000 -0.000000 0.000000 3.187210 -7.768262 -6.793936 0.345597 -17.139488 20.230345 0.410430 -13.285977 -13.008764 0.000000 -0.000000 0.000000 -0.239006 -1.215788 17.530258 1.511945 -1.068147 -0.944796 0.709388 -1.672556 4.469079 3.004308 -3.478167 10.463909 -1.238295 -4.651101 19.145310 -26.598450 4.733469 3.293212 -58.013326 -8.570994 6.116677 9.890798 -25.845141 2.570571 -4.581194 -2.750051 -6.959230 26.518128 -0.675675 2.555976 56.190022 5.131541 9.753427 -14.143539 19.402692 -11.046585 4.171786 2.948963 -7.668650 
0.552382 0.167407 1.001923 -55.337986 1.308865 84.692711 2.854050 6.045291 3.466641 -0.169817 1.075942 21.301265 1.141001 14.093733 -14.661274 0.000000 -0.000000 0.000000 3.914696 -7.518618 -5.138626 0.441721 -15.641063 19.266723 -0.020343 -12.764323 -13.556166 0.000000 -0.000000 0.000000 -0.501678 -1.222251 17.375287 1.894828 -1.689042 -0.892504 0.755377 -1.831137 4.609889 3.140714 -3.261702 11.297983 -1.380136 -4.260993 19.940276 -26.917405 4.518890 3.327391 -57.416904 -8.524641 6.612522 8.694868 -25.654253 4.132544 -4.693410 -3.053758 -6.061878 26.941840 -1.327145 1.953273 55.620222 4.787830 9.685635 -14.310330 19.454094 -11.161576 3.832273 3.152957 -8.119070 
0.539556 0.166004 1.002338 -57.702714 1.291702 84.332577 3.253980 5.337484 1.116560 -0.545080 1.812240 28.331634 0.919758 14.282855 -12.922852 0.000000 -0.000000 0.000000 4.305287 -7.455673 -3.545989 0.798157 -14.246931 18.304308 -0.533931 -11.969077 -13.965750 0.000000 -0.000000 0.000000 -0.478048 -1.009059 16.953276 2.096094 -2.209828 -0.806192 0.584578 -2.078440 4.983247 3.023293 -3.014498 11.925857 -1.367136 -3.826263 19.934391 -27.137938 4.801584 2.997466 -56.944704 -8.297413 6.773384 8.402516 -26.380548 5.896892 -5.772412 -2.477227 -4.339631 27.074093 -1.971670 1.759633 55.477874 4.830400 9.523954 -14.754263 20.025920 -10.610548 3.828542 3.272000 -7.638390 
0.526688 0.164694 1.002779 -60.553420 1.025486 83.694237 3.371498 4.166973 -1.515111 -0.711944 2.821000 35.983151 1.203817 14.485045 -9.685542 0.000000 -0.000000 0.000000 4.310282 -7.307805 -1.517061 1.277926 -12.911243 17.102701 -0.912079 -11.162513 -14.445278 0.000000 -0.000000 0.000000 -0.729818 -0.358507 16.604188 2.245457 -2.613989 -0.196928 0.556179 -1.870717 4.986729 2.804548 -2.934896 12.262409 -1.184777 -3.322160 19.758165 -27.074671 4.725659 3.127982 -57.046760 -8.377458 6.993866 8.720897 -27.180367 6.121760 -5.976449 -2.660845 -4.974433 26.957114 -2.012323 2.126116 55.556523 4.789305 9.294818 -15.140155 20.319325 -11.066199 3.519140 2.807809 -9.038836 
0.514067 0.163215 1.003008 -63.690184 0.786054 83.146044 3.493277 2.499109 -4.138315 -1.434990 3.305018 42.907831 2.745028 14.150046 -6.095730 0.000000 -0.000000 0.000000 4.429953 -7.090410 0.231943 1.446292 -10.824000 16.160743 -2.150276 -10.399295 -14.510955 0.000000 -0.000000 0.000000 -0.571185 0.413647 16.699113 2.235729 -2.580108 -0.073529 0.398923 -1.654227 4.737528 2.260399 -3.155771 12.423721 -0.729648 -2.940689 19.323588 -27.052201 4.537836 3.388829 -57.007723 -8.226529 7.037915 8.730273 -28.096898 5.857276 -5.904187 -2.247438 -6.331880 26.679420 -2.257852 2.294711 55.576455 4.285388 9.226195 -15.262204 21.110054 -10.962957 3.623519 2.734123 -9.958085 
0.501226 0.161049 1.002786 -67.030919 0.382275 82.457060 3.180303 1.086169 -6.232213 -3.075549 2.620145 48.123889 3.158378 13.000549 -7.155474 0.000000 -0.000000 0.000000 4.278901 -6.569700 1.891230 1.452038 -8.620674 16.100071 -2.221241 -9.620211 -15.387982 0.000000 -0.000000 0.000000 -0.638279 1.162966 16.865130 2.180418 -2.460301 -0.032560 0.300759 -1.350322 4.994162 1.975103 -3.140843 12.482741 -0.444362 -2.754655 18.780759 -27.037335 4.476591 3.070973 -57.098433 -8.097067 7.162656 8.975088 -29.075624 5.372772 -5.209153 -2.519251 -7.880033 26.505332 -1.870530 2.563609 55.369763 4.180049 9.366829 -15.245606 21.279550 -10.446855 3.420622 2.739553 -10.248715 
0.489041 0.158624 1.002535 -70.033741 -0.000017 82.045886 2.781264 -0.369987 -8.732843 -5.400717 1.367289 51.326885 2.520037 10.680343 -8.069795 0.000000 -0.000000 0.000000 4.127374 -6.457562 2.979950 1.248368 -6.632458 16.270140 -1.576214 -9.244209 -15.716874 0.000000 -0.000000 0.000000 -0.640201 1.857007 17.170162 2.157661 -2.375071 -0.388995 0.258801 -1.160783 5.029630 1.673395 -2.668789 12.529420 -0.364863 -2.491929 19.124561 -27.216322 4.561528 3.056682 -57.176572 -8.221330 7.306640 9.225133 -30.262703 4.117614 -4.030977 -3.015353 -9.868318 26.473482 -1.612632 2.575601 55.015549 4.079325 9.712943 -15.145206 21.218213 -9.712347 3.898165 2.867362 -10.199651 
